<svg xmlns="http://www.w3.org/2000/svg" xmlns:xlink="http://www.w3.org/1999/xlink" preserveAspectRatio="xMidYMid" width="14" height="19" viewBox="0 0 14 19">
  <defs>
    <style>
      .cls-1 {
        fill: #fff;
        fill-rule: evenodd;
      }
    </style>
  </defs>
  <path d="M7.000,19.000 C5.836,19.006 -0.000,10.104 -0.000,7.125 C-0.000,3.190 3.134,-0.000 7.000,-0.000 C10.866,-0.000 14.000,3.190 14.000,7.125 C14.000,10.064 8.145,19.006 7.000,19.000 ZM7.000,1.187 C3.778,1.187 1.167,3.846 1.167,7.125 C1.167,9.607 6.030,17.224 7.000,17.219 C7.955,17.224 12.833,9.574 12.833,7.125 C12.833,3.846 10.222,1.187 7.000,1.187 ZM7.000,10.094 C5.389,10.094 4.083,8.765 4.083,7.125 C4.083,5.485 5.389,4.156 7.000,4.156 C8.611,4.156 9.916,5.485 9.916,7.125 C9.916,8.765 8.611,10.094 7.000,10.094 ZM7.000,5.344 C6.033,5.344 5.250,6.141 5.250,7.125 C5.250,8.109 6.033,8.906 7.000,8.906 C7.966,8.906 8.750,8.109 8.750,7.125 C8.750,6.141 7.966,5.344 7.000,5.344 Z" class="cls-1"/>
</svg>
